<svg width="727" height="857" viewBox="0 0 727 857" fill="none" xmlns="http://www.w3.org/2000/svg">
<g clip-path="url(#clip0_403_8270)">
<path d="M699.82 22.85H14.1797V708.49H699.82V22.85Z" fill="#94D9FF"/>
<path d="M366.239 650.29L376.599 669.42L480.659 689.15L494.769 663.06L485.389 639.98C477.579 645.2 455.069 661.94 427.549 663.73C396.949 665.73 374.379 654.74 366.239 650.29Z" fill="#C49A7B"/>
<path d="M445.809 369.06C437.719 365.68 424.389 360.25 404.089 361.41C383.499 362.58 365.679 372.98 358.029 377.31C352.139 385.09 342.929 391.29 337.229 403.67C328.199 423.3 327.389 445.1 325.979 458.04C322.689 486.31 319.399 514.57 316.109 542.84C319.979 562.59 323.849 582.33 327.729 602.08C330.339 608.23 334.049 615.46 339.349 622.99C347.989 635.29 357.579 643.7 364.909 649.13C369.629 651.92 376.419 655.46 385.019 658.36C403.669 664.67 419.239 664.11 427.559 663.73C446.209 662.89 461.369 658.12 471.779 653.77C478.029 648.05 484.919 640.98 491.809 632.41C498.109 624.57 503.169 617.01 507.209 610.21C507.669 596.87 507.089 580.22 503.729 561.42C500.789 545 496.449 530.95 492.109 519.6C489.169 503.43 486.269 487.16 483.399 470.81C479.609 449.19 475.929 427.7 472.359 406.34C471.049 401.01 467.649 390.56 458.419 381.37C453.919 376.89 449.479 370.94 445.819 369.05L445.809 369.06Z" fill="#E9BEA3"/>
<path d="M317.98 522.03C318.87 527.82 320.05 536.7 320.77 547.66C321.72 562.23 320.99 567.6 322.89 576.75C325.1 587.42 329.11 594.66 333.37 602.38C345.74 624.78 356.48 629.26 367.9 652C371 658.19 373 663.42 374.09 666.47C365.37 664.04 346.49 657.49 329.88 639.98C325.27 635.12 313.71 621.9 307.49 601.16C305.62 594.93 303.45 585.4 303.41 573.79C303.33 549.88 312.33 531.51 317.98 522.03Z" fill="#5C3207"/>
<path d="M566.39 540.24C558.81 534.12 547.89 523.08 539.96 504.14C538.46 482.73 532.28 438.45 501.28 395.2C484.58 371.9 466.27 352.82 452 342.82C446.88 337.87 434.42 330.9 415.55 326.23C397.04 321.65 381.79 324.94 374.93 326.87C361.71 331.62 343.79 342.5 324.01 357.81C300.07 376.34 295.13 400.04 267.28 501.56C247.19 574.81 244.49 586.55 242.79 606.64C239.56 644.69 242.99 676.49 246.66 698.17C244.72 702.47 242.79 706.77 240.85 711.07L699.82 708.49V542.18C651.61 567.05 599.41 566.93 566.39 540.24ZM507.19 610.21C505.91 644.04 492.23 671.24 480.65 689.15C446.92 682.06 413.18 674.97 379.45 667.88C371.11 665.94 341.72 658.05 321.43 629.84C304 605.6 303.45 580.48 303.38 571.83C303.16 543.71 314.47 538.47 325.3 502.21C342.8 443.63 325.19 417.48 348.51 390.05C360.8 375.58 377.45 369.03 390.64 365.75C394.46 364.51 420.73 356.46 445.63 372.08C463.92 383.55 470.52 400.93 472.34 406.35C473.15 462.89 482.72 505.81 491.61 535.08C499.55 561.24 508.3 580.91 507.19 610.21Z" fill="#5F3B0E"/>
<path d="M595.06 247.43L618.7 288.05H634.62L663.98 265.66L670.74 218.27L664.98 192.72L653.04 221.16C641.63 227.15 635.73 234.14 630.96 237.05C627.67 239.06 625.3 240.41 620.55 243.11C613.33 247.22 611.97 247.8 610.74 248.24C607.72 249.32 601.66 248.22 595.06 247.43Z" fill="#BC8155"/>
<path d="M535.6 137.77C542.98 130.72 556.02 120.04 575.02 112.52C593.13 105.35 609.17 104.01 619.2 103.94C627.33 112.73 635.46 121.52 643.58 130.31L653.03 149.72C654.58 146.18 655.95 145.28 657.01 145.24C661.66 145.09 668.84 161.38 663.41 168.77C662.87 169.5 662.31 170.01 661.98 170.28C662.48 171.65 662.97 173.05 663.43 174.5C664.66 178.3 665.62 181.98 666.38 185.51C667.14 189.04 666.78 192.59 665.45 195.87C663.9 199.7 662.34 203.52 660.97 207.41C659.84 210.61 658.71 213.81 657.43 217.06C655.81 221.17 652.83 224.61 648.93 226.68C636.18 233.45 623.51 242.12 610.73 248.23C607.62 249.15 599.83 250.99 590.88 247.99C585.71 246.26 582.03 243.53 579.81 241.58C567.06 223.39 554.31 205.21 541.56 187.02L535.59 137.76L535.6 137.77Z" fill="#D29F74"/>
<path d="M538 194.62L553.49 204.03L541.57 187.03L535.6 137.77C542.98 130.72 556.02 120.04 575.02 112.52C593.13 105.35 609.17 104.01 619.2 103.94C627.33 112.73 635.46 121.52 643.58 130.31L653.03 149.72L650.9 129.22C649.69 117.62 644.77 106.71 636.87 98.14L627.44 87.9C622.86 82.93 616.78 79.57 610.13 78.34L604.25 77.25C593.84 75.33 583.09 76.87 573.64 81.63L558.66 89.19C553.02 92.04 548.03 96.04 544.03 100.93L537.46 108.96C529.61 118.55 521.35 131.09 523.87 143.48C524.03 144.28 524.19 145.09 524.26 145.9L524.93 153.05C524.93 160.87 525.89 168.66 527.79 176.25L538 194.62Z" fill="#271E18"/>
<path d="M697.36 40.56C690.95 39.84 688.99 42.16 688.65 42.61C685.86 46.21 688.63 54.83 697.36 62.96L633.4 38.2C630.19 36.95 626.62 37.99 624.8 40.55C622.66 43.56 623.34 48.1 626.63 50.57L685.57 74.28C687.82 75.94 689.01 78.67 688.64 81.37C688.22 84.47 685.8 87.03 682.62 87.71C662.44 91.75 642.26 95.79 622.08 99.83C621.54 100.2 619.75 101.53 619.19 103.94C618.58 106.58 619.72 109.45 622.08 111.28C647.17 109.88 672.26 108.48 697.35 107.08V40.56H697.36Z" fill="#E3B798"/>
<path d="M699.82 220.4H686.43L670.45 215.89L666.63 288.05L673.5 322.04L634.69 292.21L618.7 288.05L601.16 257.91L584.26 273.2L607.23 318.61L636.01 338.94L645.77 373.52L671.91 399.13L660.56 424.21L674.55 444.01L688.02 475.43L689.31 547.19H699.82V220.4Z" fill="#191E24"/>
<path d="M629.45 288.05H618.7L634.69 292.21L673.5 322.04L666.64 288.04L670.21 220.59L664.97 258.58C664.35 263.1 661.96 267.2 658.33 269.97L638.75 284.9C636.08 286.93 632.82 288.04 629.47 288.04L629.45 288.05Z" fill="#EE9D3F"/>
<path d="M487.839 215.14C462.529 219.84 448.199 238.37 444.429 243.61C443.279 245.62 442.129 247.63 440.979 249.65C439.629 278.1 438.379 304.53 437.029 332.99C451.019 341.79 468.289 356.8 485.199 375.49C495.559 386.94 503.609 398.17 509.839 408.16C512.789 408.8 530.539 412.38 547.009 400.86C561.129 390.99 564.939 376.57 565.789 372.97C568.169 365.89 570.559 358.81 572.939 351.73C573.209 348.21 573.489 344.69 573.759 341.18C576.019 339.05 578.449 336.07 580.049 332.08C585.889 317.5 575.189 302.86 574.149 301.48C567.739 288.32 561.319 275.17 554.909 262.01C554.929 255.98 554.049 244.61 546.739 234.16C528.599 208.2 489.649 214.83 487.839 215.16V215.14Z" fill="#DBB8A0"/>
<path d="M509.829 408.15C517.199 421.47 521.959 432.77 525.009 440.91C530.969 456.83 533.949 464.78 535.369 472.27C536.609 478.75 536.709 482.15 538.569 482.76C541.929 483.85 555.939 465.93 570.519 436.35L560.339 384.25C558.609 387.86 553.289 397.74 541.539 404.12C527.149 411.93 513.239 408.98 509.829 408.15Z" fill="#B58D73"/>
<path d="M537.619 482.02C542.599 477.77 548.429 471.98 553.969 464.34C562.679 452.33 567.119 440.66 569.469 432.45C579.249 431.9 589.029 431.35 598.809 430.81L597.299 499.3L593.269 554.93C581.769 554.93 562.499 541.21 548.399 520.19C544.669 514.63 541.959 509.16 539.949 504.15C539.169 496.78 538.389 489.4 537.609 482.03L537.619 482.02Z" fill="#0C1017"/>
<path d="M652.539 415.3C658.559 418.31 663.829 430.67 671.919 440.28C675.789 444.88 682.91 454.56 688.02 475.43C694.65 502.5 692.88 527.94 689.31 547.18C678.96 552.13 661.43 558.89 638.74 560.17C619.4 561.26 603.57 557.94 593.27 554.92C595.12 513.55 596.96 472.17 598.81 430.8L652.53 415.3H652.539Z" fill="#3B67B4"/>
<path d="M594.569 525.87C595.169 516.1 612.579 487.84 612.579 487.84C618.439 470.84 629.499 463.98 632.899 461.38C626.879 458.51 604.159 448.87 598.139 446L594.579 525.87H594.569Z" fill="#24354F"/>
<path d="M474.209 199.69C471.039 199.39 463.89 199.17 456.23 203.03C451.04 205.65 447.659 209.11 445.779 211.39C444.299 211.26 435.5 210.65 428.219 217.24C420.099 224.59 420.61 234.78 420.69 236.06C418.3 237.8 412.3 242.63 409.14 251.35C406.43 258.81 407.19 265.31 407.73 268.26C406.33 271 403.799 276.88 404.119 284.65C404.369 290.95 406.39 295.74 407.73 298.36C406.85 299.58 403.45 304.56 404.32 311.24C405.61 321.12 415.01 325.4 415.54 325.64C423.25 327.98 430.949 331.97 438.649 334.31C438.539 313.69 438.939 290.78 439.91 268.94C440.209 262.25 440.56 255.62 440.95 249.05C442.75 245.48 447.019 241.06 451.399 236.06C453.749 233.37 461.72 225.92 476.6 220.15C483.45 217.49 500.06 216.62 519.96 218.03C526.26 218.48 539.039 222.8 546.719 233.55C554.839 244.93 555.03 257 554.89 261.4C558.38 269.27 561.859 277.13 565.349 285C568.279 290.29 571.21 295.58 574.13 300.87C574.04 303.61 574.239 307.8 575.799 312.58C577.169 316.77 579.099 319.93 580.619 322.02C579.449 322.86 575.19 326.14 573.71 332.23C572.45 337.42 572.259 341.91 572.859 343.37C562.699 355.06 569.68 367.41 565.76 372.37C564.189 374.36 560.82 378.11 560.32 383.66C559.91 388.32 561.689 392.31 563.249 394.95C561.99 396.06 555.919 401.62 555.309 410.84C554.549 422.22 562.749 429.44 563.669 430.22C564.019 431.13 567.649 440.02 577.469 442.62C587.879 445.37 595.75 438.54 596.33 438.02C597 444.79 601.77 450.07 607.57 450.98C613.56 451.92 618.079 447.78 618.679 447.22C621.059 448.16 628.34 450.68 636.84 448.06C649.76 444.07 654.32 431.66 654.82 430.22C657.7 428.29 662.049 424.81 665.69 419.21C671.19 410.73 671.84 402.32 671.89 398.55C669.88 394.52 666.32 388.56 660.25 382.83C654.92 377.8 649.579 374.75 645.749 372.94C647.02 370.88 650.13 365.2 649.38 357.74C648.109 345.23 637.079 338.95 635.979 338.35C633.259 334.41 628.249 328.3 620.109 323.45C615.299 320.58 610.76 318.97 607.21 318.02C607.59 313.54 608.03 301.22 600.46 288.75C595.1 279.92 588.119 274.96 584.239 272.61C584.199 266.22 583.17 251.93 573.28 238.99C570.13 234.86 572.63 229.57 569.559 227.22C569.609 225.86 568.97 216.82 560.34 209.97C555.83 206.38 551.839 203.61 549.499 203.39C546.249 195.72 533.389 192.66 525.619 192.17C517.469 191.65 511.77 196.53 510.57 197.61C508.22 196.15 500.469 191.76 490.079 193.01C482.019 193.98 476.509 197.85 474.189 199.7L474.209 199.69Z" fill="#D18F3B"/>
<path d="M213.71 224.4C209.88 219.36 207.22 216.43 203.8 217.86C199.21 219.79 199.63 228.1 199.84 232.28C200.12 237.9 199.6 248.69 204.87 249.51C205.94 249.68 207.96 249.58 210.79 246.98C210.92 251.47 211.84 262.67 219.63 273.68C225.72 282.28 233.18 286.75 237.17 288.78C241.31 289.88 247.36 291 254.68 290.7C262.15 290.39 268.18 288.71 272.25 287.23L287.34 261.25C289.26 260.97 292.35 260.27 295.42 258.21C306.79 250.59 308.12 230.81 303.3 228.21C301.89 227.45 299.08 227.69 292.84 233.18L297.09 205.29C295.72 200.45 292.31 190.86 283.67 182.02C276.64 174.82 269.16 171.2 264.69 169.44C261.07 168.9 254.99 168.5 247.96 170.5C237.26 173.54 230.82 180.29 228.31 183.25L217.16 207.42L213.71 224.42V224.4Z" fill="#E9C499"/>
<path d="M207.589 219.06C207.179 213.81 207.589 200.91 212.649 189.08C218.049 176.42 226.519 168.96 230.709 165.71C234.089 163.22 245.809 155.25 262.049 156.41C272.229 157.14 279.729 161.15 283.559 163.58C286.859 165.68 297.279 172.93 301.889 186.95C308.139 205.99 294.309 230.81 292.859 233.16L297.109 205.27C295.779 200.54 292.519 191.35 284.359 182.7C277.059 174.95 269.179 171.18 264.709 169.42C261.189 168.89 253.609 168.24 244.899 171.5C235.979 174.84 230.619 180.5 228.329 183.23L217.179 207.4C216.029 213.07 214.879 218.73 213.729 224.4C211.869 221.83 209.469 221.63 207.609 219.06H207.589Z" fill="#9C754A"/>
<path d="M210.569 280.09C210.789 273.01 212.079 264.84 212.299 257.76C213.569 262.58 215.989 268.92 220.739 275.18C223.729 279.12 228.819 284.6 237.459 287.92C243.329 290.18 248.039 290.88 253.419 290.73C261.489 290.5 267.989 288.72 272.259 287.22L275.199 282.16C274.739 290.28 274.279 298.41 273.819 306.53C268.209 302.69 260.779 298.76 251.549 296.76C242.809 294.87 238.859 295.01 231.399 293.65C225.559 292.59 217.479 288.79 210.569 280.08V280.09Z" fill="#D3B28B"/>
<path d="M242.329 612.64C239.749 648.36 243.179 678.1 246.659 698.17L240.849 711.07H217.319C214.299 707.66 208.899 702.41 200.709 698.32C192.559 694.25 185.139 693.08 180.609 692.71C165.429 683.62 158.789 675.65 155.589 669.8C154.709 668.2 152.479 663.81 147.869 659.51C143.759 655.68 139.469 653.51 136.409 652.26C135.889 650.65 134.589 647.42 131.499 644.54C127.649 640.96 123.339 640.11 121.679 639.87L122.149 634.49L116.069 629.35L116.299 619.29C119.729 612.98 123.159 606.66 126.589 600.35C131.099 598.27 136.469 595.28 142.009 590.97C151.429 583.64 157.389 575.54 160.959 569.72C165.459 569.64 171.759 568.76 176.159 564.34C181.359 559.12 178.429 554.43 182.479 544.7C188.099 531.17 198.469 528.94 198.609 518.51C198.659 514.8 197.389 511.81 196.509 510.1C202.879 506.41 214.929 498.39 224.779 483.94L269.489 491.81C268.279 496.71 266.969 502.05 265.549 507.86C250.839 568.23 243.359 598.4 242.329 612.64Z" fill="#B02B2B"/>
<path d="M287.8 430.11C289.73 423.62 291.66 417.13 293.59 410.64C293.29 411.75 293.04 412.66 292.86 413.38C290.25 423.24 288.83 427.64 287.8 430.11Z" fill="#574D48"/>
<path d="M313.659 369.29C311.619 372.06 308.319 376.79 304.879 383.01C298.609 394.35 295.369 404.36 293.749 410.08C283.479 402.82 269.559 394.6 252.009 388.23C242.399 384.74 233.399 382.43 225.419 380.88C225.369 381.61 225.319 382.34 225.269 383.07C223.789 379.74 216.689 375.86 215.209 372.53C211.899 367.5 208.199 363.96 199.719 357.37C190.629 350.31 185.589 343.66 179.669 341.74C173.379 339.39 164.159 336.74 152.779 336.13C142.659 335.59 134.139 336.85 127.999 338.24C116.899 338.19 98.5091 339.49 77.7191 347.82C57.0691 356.1 49.6291 373.22 41.6291 380.88C37.4191 396.94 26.5191 407.52 22.3091 423.58H18.3291V320.23L34.2291 318.36C56.9091 298.42 77.5691 292.44 89.6491 290.3C102.359 288.05 131.179 282.95 160.259 294.98C170.109 299.05 184.649 307.02 193.929 301.06C197.789 298.58 201.289 293.38 202.579 291.47C206.489 285.69 208.409 280.17 209.419 276.41C211.739 280.51 215.729 286.14 222.379 290.1C231.359 295.46 238.679 293.87 251.549 296.76C257.629 298.13 266.259 300.79 276.239 306.54L282.319 312.28C278.339 320.85 274.369 329.43 270.389 338C275.909 339.92 282.549 342.81 289.539 347.23C301.089 354.54 308.849 363.04 313.659 369.29Z" fill="#293343"/>
<path d="M41.6295 233.82L96.0595 148.58C96.1395 148.25 97.0295 144.42 94.3495 141.39C92.4195 139.2 89.3695 138.28 86.4795 138.99C76.2095 150.29 65.9395 161.58 55.6695 172.88L67.6495 123.58C69.1595 120.44 67.5495 116.75 64.5695 115.71C61.7495 114.73 58.3795 116.35 57.3795 119.48C49.7295 134.88 42.0895 150.29 34.4395 165.69C32.4295 162.59 28.9295 160.83 25.3595 161.14C20.7495 161.54 18.3095 165.21 18.0195 165.67C18.1195 183.25 18.2195 200.83 18.3295 218.41C26.0995 223.54 33.8595 228.68 41.6295 233.81V233.82Z" fill="#DFB58F"/>
<path d="M18.3291 266.68L41.6291 233.82L18.3291 218.41V266.68Z" fill="#14151F"/>
<path d="M293.749 410.08C293.749 410.08 293.729 410.13 293.729 410.16C293.679 410.32 293.629 410.48 293.589 410.64C291.659 417.13 289.729 423.62 287.799 430.11C284.809 437.36 285.289 428.03 269.519 491.69C269.509 491.73 269.499 491.77 269.489 491.81L224.779 483.94C225.999 482.16 227.179 480.28 228.309 478.3C230.579 474.32 237.639 461.22 239.299 442.52C241.069 422.39 235.619 406.63 232.279 398.8C229.939 393.55 227.609 388.31 225.269 383.07C225.319 382.34 225.369 381.61 225.419 380.88C233.399 382.43 242.399 384.74 252.009 388.23C269.559 394.6 283.479 402.82 293.749 410.08Z" fill="#BBCDEB"/>
<path d="M251.549 296.77V311.68L235.599 345.82L234.049 396.5L219.289 708.49H225.239L240.849 349.44L257.319 315.3V298.29L251.549 296.77Z" fill="#20242D"/>
<path d="M18.3301 423.58C20.1401 424 22.8101 424.86 25.5601 426.76C30.2801 430.03 32.3601 434.39 33.1501 436.35C42.8501 424.61 52.5601 412.87 62.2601 401.13L83.3901 398.31V403.48L104.05 394.09V415.22H137.86L146.78 423.59L149.6 410.65L154.77 430.81L161.34 423.59L166 434.47L170.74 428.42L176.37 443.39H192.78C195.81 447.12 200.02 453.25 202.79 461.74C206.38 472.78 205.75 482.33 205.01 487.53C202.18 495.05 199.34 502.58 196.51 510.1C197.54 511.97 198.81 514.95 198.61 518.51C198.19 525.87 191.92 528.08 186.64 535.8C178.27 548.04 184.2 556.88 176.16 564.34C172.01 568.18 166.45 569.53 160.96 569.72C157.69 575.08 152.31 582.48 143.93 589.43C137.49 594.77 131.71 597.74 126.59 600.35C116.98 605.26 115.83 604.22 98.1701 611.38C87.3001 615.79 86.1901 616.81 81.9801 617.13C74.1001 617.73 68.3701 614.9 60.6701 611.36C53.2201 607.94 42.2501 603.1 27.9801 597.5C24.7601 589.64 21.5501 581.78 18.3301 573.92V423.57V423.58Z" fill="#D2B29B"/>
<path d="M18.3303 621.83L66.4803 634.98C72.1003 636.42 81.3103 638.04 92.5303 636.64C102.99 635.34 111.06 631.94 116.06 629.35L116.29 619.29L126.58 600.35C116.24 603.63 108.12 606.95 102.67 609.34C91.3503 614.32 88.4503 616.67 81.9703 617.13C75.2603 617.6 70.7703 615.62 58.9403 610.57C52.7203 607.91 42.1903 603.44 27.9703 597.5C24.7503 589.64 21.5403 581.78 18.3203 573.92V621.82L18.3303 621.83Z" fill="#907C63"/>
<path d="M18.3301 628.4C35.1601 630.95 48.5501 634.28 57.8101 636.89C74.7201 641.67 84.8501 646.07 100.29 645.3C109.11 644.86 116.26 642.9 120.94 641.3C121.34 639.03 121.74 636.76 122.14 634.49L116.06 629.35C112.66 631.25 107.52 633.66 100.96 635.05C89.2901 637.53 79.9501 635.34 72.5701 633.66C59.8201 630.77 44.9201 627.61 25.2101 623.7C22.9201 623.07 20.6201 622.45 18.3301 621.82V628.39V628.4Z" fill="#050506"/>
<path d="M20.4701 711.07H217.33C213.68 706.64 207.68 700.62 198.74 696.67C191.33 693.39 188.87 694.61 180.61 690.95C176.89 689.3 167.76 685.15 160.15 676.34C153.7 668.88 153.64 664.15 146.03 658.04C142.36 655.09 138.83 653.31 136.41 652.26C135.83 650.57 133.94 645.78 128.91 642.55C126.11 640.75 123.39 640.12 121.68 639.87C117.34 641.72 110.81 644.01 102.67 644.91C86.9701 646.65 76.3301 642.02 57.8101 636.89C48.4001 634.28 35.0101 631.01 18.3301 628.4L20.4601 711.07H20.4701Z" fill="#C2D9F7"/>
<path d="M22.3105 423.58L32.7005 383.94C34.6705 376.44 38.5905 369.55 44.2405 364.24C60.3306 349.12 80.8205 346.83 92.0305 343.01C109.781 336.97 139.671 326.79 172.571 337.74C182.421 341.02 189.961 345.34 194.831 348.51C202.991 354.14 217.691 365.97 228.111 386.18C243.391 415.82 239.411 444 237.661 453.41C236.801 460.04 233.961 474.91 222.611 489.45C210.551 504.89 195.711 511.21 189.451 513.48C192.041 510.54 194.871 506.92 197.591 502.58C201.031 497.08 203.391 491.89 205.021 487.53C204.991 479.89 203.971 469.2 199.541 457.39C197.501 451.95 195.121 447.28 192.791 443.39H176.381L170.751 428.42L166.011 434.47L161.351 423.59L154.781 430.81L149.611 410.65L146.791 423.59L137.871 415.22H104.061V394.09L83.4006 403.48V398.31L62.2705 401.13L33.1605 436.35C32.0405 434.15 30.3405 431.37 27.8005 428.55C25.8905 426.43 23.9805 424.8 22.3305 423.59L22.3105 423.58Z" fill="#1E2024"/>
<path d="M485.39 639.98C489.47 635.38 493.85 629.87 498.14 623.41C501.85 617.82 504.87 612.47 507.33 607.58C507.05 617.17 505.78 629.11 502.14 642.36C499.99 650.2 497.39 657.11 494.76 663.05C491.63 655.36 488.51 647.66 485.38 639.97L485.39 639.98Z" fill="#5C3207"/>
<path d="M1 1V855.82H725.47V1H1ZM698.12 702.11H23.9V29.23H698.12V702.11Z" fill="#F6F6F6" stroke="black" stroke-width="2" stroke-miterlimit="10"/>
<path d="M260.05 758.76H242.14L235.69 750.53H264.82L260.05 758.76Z" fill="black"/>
<path d="M428.011 757.68H410.101L403.641 749.45H432.771L428.011 757.68Z" fill="black"/>
<path d="M241.021 812.96H258.941L265.391 821.19H236.261L241.021 812.96Z" fill="black"/>
<path d="M408.42 780.17H426.68L435.15 785.94L426.32 790.46L408.42 790.35L400.83 786.54L408.42 780.17Z" fill="black"/>
<path d="M407.01 812.96H424.92L431.38 821.19H402.25L407.01 812.96Z" fill="black"/>
<path d="M301.99 793.05V810.96L310.21 817.41V788.28L301.99 793.05Z" fill="black"/>
<path d="M261.261 793.85V811.77L269.491 818.22V789.09L261.261 793.85Z" fill="black"/>
<path d="M426.38 792.71V810.62L434.61 817.07V787.94L426.38 792.71Z" fill="black"/>
<path d="M239.8 793.85V811.77L231.57 818.22V789.09L239.8 793.85Z" fill="black"/>
<path d="M239.8 760.12V778.03L231.57 784.49V755.36L239.8 760.12Z" fill="black"/>
<path d="M301.66 759.49V777.41L309.89 783.86V754.73L301.66 759.49Z" fill="black"/>
<path d="M261.261 760.12V778.03L269.491 784.49V755.36L261.261 760.12Z" fill="black"/>
<path d="M482.381 756.76H464.471L458.011 748.53H487.141L482.381 756.76Z" fill="black"/>
<path d="M463.35 810.96H481.26L487.72 819.19H458.59L463.35 810.96Z" fill="black"/>
<path d="M483.59 791.85V809.77L491.82 816.22V787.09L483.59 791.85Z" fill="black"/>
<path d="M462.13 791.85V809.77L453.9 816.22V787.09L462.13 791.85Z" fill="black"/>
<path d="M462.13 758.12V776.03L453.9 782.49V753.36L462.13 758.12Z" fill="black"/>
<path d="M483.59 758.12V776.03L491.82 782.49V753.36L483.59 758.12Z" fill="black"/>
<path d="M408.42 758.33V776.24L400.19 782.7V753.57L408.42 758.33Z" fill="black"/>
<path d="M365.05 766.12H356.38V774.79H365.05V766.12Z" fill="black"/>
<path d="M365.54 786.92H356.87V795.59H365.54V786.92Z" fill="black"/>
</g>
<defs>
<clipPath id="clip0_403_8270">
<rect width="726.47" height="856.82" fill="white"/>
</clipPath>
</defs>
</svg>
